<svg width="1256" height="624" viewBox="0 0 1256 624" fill="none" xmlns="http://www.w3.org/2000/svg">
<path d="M597.984 0C652.936 0.000245362 697.482 44.5475 697.482 99.499V100.505C756.167 107.527 801.661 157.475 801.661 218.051C801.661 283.437 748.654 336.442 683.269 336.442H559.068V236.139H554.39C499.438 236.139 454.891 191.591 454.891 136.64V99.499C454.891 44.5473 499.438 7.29525e-06 554.39 0H597.984ZM697.482 136.64C697.482 191.591 652.936 236.138 597.984 236.139H592.563V302.947H683.269C730.156 302.947 768.166 264.938 768.166 218.051C768.166 176.007 737.603 141.102 697.482 134.339V136.64ZM658.567 133.153C622.114 133.153 592.564 162.704 592.563 199.157V202.645H597.984C634.437 202.644 663.988 173.093 663.988 136.64V133.153H658.567ZM554.39 33.4951C517.937 33.4951 488.386 63.046 488.386 99.499V136.64C488.386 173.093 517.937 202.645 554.39 202.645H559.068V199.157C559.069 144.206 603.616 99.6582 658.567 99.6582H663.988V99.499C663.988 63.0461 634.437 33.4954 597.984 33.4951H554.39Z" fill="#212121"/>
<path d="M93.4002 621.951V560.167C84.6645 567.04 73.3015 571.281 61.4786 571.281C25.0578 571.281 0 545.7 0 509.004C0 475.4 27.4224 447.451 63.3834 447.451C99.3445 447.451 126.997 473.723 126.997 509.004V621.951H93.4002ZM93.4002 509.234C93.4002 492.662 80.625 479.181 63.3506 479.181C46.0761 479.181 33.5637 492.662 33.5637 509.234C33.5637 525.807 46.109 539.551 63.3506 539.551C80.5922 539.551 93.4002 525.807 93.4002 509.234Z" fill="#212121"/>
<path d="M193.434 450.772H159.838V567.96H193.434V450.772Z" fill="#212121"/>
<path d="M371.007 509.004C371.007 475.367 398.429 447.221 434.39 447.221C470.351 447.221 498.003 473.723 498.003 509.004V567.96H466.082V554.216C457.806 564.639 445.03 571.018 428.938 571.018C394.882 571.018 371.007 543.069 371.007 508.971V509.004ZM464.407 509.234C464.407 492.662 451.632 478.918 434.357 478.918C417.083 478.918 404.57 492.662 404.57 509.234C404.57 525.807 417.116 539.551 434.357 539.551C451.599 539.551 464.407 525.807 464.407 509.234Z" fill="#212121"/>
<path d="M528.437 510.648C528.437 476.781 553.988 450.509 587.781 450.509C607.157 450.509 624.202 460.439 633.89 475.137L634.12 400.332H648.767V510.648C648.767 544.253 622.297 570.558 588.471 570.558C554.644 570.558 528.404 543.562 528.404 510.648H528.437ZM634.153 510.648C634.153 485.56 614.054 464.483 588.504 464.483C562.953 464.483 543.084 485.56 543.084 510.648C543.084 535.737 563.183 556.583 588.504 556.583C613.824 556.583 634.153 535.737 634.153 510.648Z" fill="#212121"/>
<path d="M678.357 510.188C678.357 477.044 701.28 450.279 734.877 450.279C768.473 450.279 789.984 474.183 789.984 506.867V515.613H692.807C695.172 539.058 713.136 556.353 737.504 556.353C753.103 556.353 767.291 550.435 775.567 535.77L786.93 541.918C776.519 560.858 758.555 570.328 737.504 570.328C703.677 570.328 678.39 544.516 678.39 510.188H678.357ZM775.304 503.809C774.844 479.904 758.03 464.253 734.877 464.253C711.724 464.253 695.402 481.548 693.267 503.809H775.337H775.304Z" fill="#212121"/>
<path d="M815.239 545.009L827.292 538.367C834.155 551.618 844.796 556.353 858.754 556.353C874.123 556.353 886.898 549.711 886.898 536.46C886.898 507.59 818.786 527.714 818.786 484.146C818.786 464.976 836.29 451.462 858.294 451.462C876.98 451.462 891.168 459.518 898.721 473.23L886.668 480.102C880.527 468.495 870.576 465.174 858.524 465.174C845.748 465.174 833.466 472.046 833.466 483.883C833.466 511.832 901.578 492.629 901.578 536.197C901.578 557.044 881.939 570.065 859.246 570.065C839.87 570.065 823.778 561.779 815.272 544.976L815.239 545.009Z" fill="#212121"/>
<path d="M953.106 451.907V567.96H938.459V451.907H953.106Z" fill="#212121"/>
<path d="M991.891 594.002L1004.17 587.13C1012.45 601.565 1027.82 609.39 1045.78 609.39C1073.7 609.39 1093.07 589.037 1093.07 557.997V541.885C1085.03 557.997 1068.02 569.834 1046.01 569.834C1013.14 569.834 987.359 543.562 987.359 510.155C987.359 476.748 1013.14 450.476 1047.43 450.476C1081.71 450.476 1107.72 476.518 1107.72 510.155V558.458C1107.72 597.751 1081.94 623.332 1046.01 623.332C1022.83 623.332 1002.27 613.139 991.859 593.969L991.891 594.002ZM1093.11 509.958C1093.11 484.869 1072.78 464.483 1047.46 464.483C1022.14 464.483 1002.04 484.837 1002.04 509.958C1002.04 535.079 1022.37 555.893 1047.46 555.893C1072.55 555.893 1093.11 535.309 1093.11 509.958Z" fill="#212121"/>
<path d="M1160.24 510.418V567.96H1145.59V509.234C1145.59 476.09 1165.69 450.509 1200.2 450.509C1234.72 450.509 1256 475.827 1256 509.004V567.96H1241.35V510.648C1241.35 486.02 1226.94 464.483 1200.2 464.483C1173.47 464.483 1160.24 486.02 1160.24 510.418Z" fill="#212121"/>
<path d="M348.773 512.753C348.773 478.425 328.214 450.706 287.294 450.706C286.67 450.706 226.341 450.574 226.341 450.574V568.092H259.872V516.731C259.872 498.745 268.345 483.357 287.262 483.357C306.178 483.357 315.177 498.745 315.177 516.731V568.092H348.773V512.72V512.753Z" fill="#212121"/>
</svg>
