<svg width="1619" height="393" viewBox="0 0 1619 393" fill="none" xmlns="http://www.w3.org/2000/svg">
<path d="M1415.39 0C1470.31 9.23737e-05 1514.83 44.5194 1514.83 99.4365V100.439C1573.48 107.457 1618.94 157.374 1618.94 217.911C1618.94 283.256 1565.97 336.228 1500.62 336.229H1376.5V235.99H1371.83C1316.91 235.99 1272.39 191.471 1272.39 136.554V99.4365C1272.39 44.5195 1316.91 0.000208986 1371.83 0H1415.39ZM1514.83 136.554C1514.83 191.471 1470.31 235.99 1415.39 235.99H1409.98V302.755H1500.62C1547.48 302.755 1585.47 264.769 1585.47 217.911C1585.47 175.894 1554.92 141.012 1514.83 134.253V136.554ZM1475.94 133.067C1439.51 133.067 1409.98 162.6 1409.98 199.03V202.517H1415.39C1451.82 202.517 1481.36 172.984 1481.36 136.554V133.067H1475.94ZM1371.83 33.4736C1335.4 33.4738 1305.86 63.0065 1305.86 99.4365V136.554C1305.86 172.984 1335.4 202.516 1371.83 202.517H1376.5V199.03C1376.5 144.113 1421.02 99.5938 1475.94 99.5938H1481.36V99.4365C1481.36 63.0064 1451.82 33.4737 1415.39 33.4736H1371.83Z" fill="#212121"/>
<path d="M93.4002 391.625V330.119C84.6645 336.96 73.3015 341.183 61.4786 341.183C25.0578 341.183 0 315.716 0 279.185C0 245.731 27.4224 217.907 63.3834 217.907C99.3445 217.907 126.997 244.062 126.997 279.185V391.625H93.4002ZM93.4002 279.414C93.4002 262.916 80.625 249.495 63.3506 249.495C46.0761 249.495 33.5637 262.916 33.5637 279.414C33.5637 295.912 46.109 309.595 63.3506 309.595C80.5922 309.595 93.4002 295.912 93.4002 279.414Z" fill="#212121"/>
<path d="M193.434 221.214H159.838V337.876H193.434V221.214Z" fill="#212121"/>
<path d="M371.007 279.185C371.007 245.698 398.429 217.678 434.39 217.678C470.351 217.678 498.003 244.062 498.003 279.185V337.876H466.082V324.194C457.806 334.57 445.03 340.921 428.938 340.921C394.882 340.921 371.007 313.097 371.007 279.152V279.185ZM464.407 279.414C464.407 262.916 451.632 249.234 434.357 249.234C417.083 249.234 404.57 262.916 404.57 279.414C404.57 295.912 417.116 309.595 434.357 309.595C451.599 309.595 464.407 295.912 464.407 279.414Z" fill="#212121"/>
<path d="M528.437 280.822C528.437 247.106 553.988 220.952 587.781 220.952C607.157 220.952 624.202 230.837 633.89 245.469L634.12 171H648.767V280.822C648.767 314.275 622.297 340.462 588.471 340.462C554.644 340.462 528.404 313.588 528.404 280.822H528.437ZM634.153 280.822C634.153 255.846 614.054 234.863 588.504 234.863C562.953 234.863 543.084 255.846 543.084 280.822C543.084 305.797 563.183 326.551 588.504 326.551C613.824 326.551 634.153 305.797 634.153 280.822Z" fill="#212121"/>
<path d="M678.357 280.363C678.357 247.368 701.28 220.723 734.877 220.723C768.473 220.723 789.984 244.52 789.984 277.057V285.764H692.807C695.172 309.104 713.136 326.321 737.504 326.321C753.103 326.321 767.291 320.429 775.567 305.83L786.93 311.951C776.519 330.806 758.555 340.233 737.504 340.233C703.677 340.233 678.39 314.537 678.39 280.363H678.357ZM775.304 274.013C774.844 250.216 758.03 234.634 734.877 234.634C711.724 234.634 695.402 251.852 693.267 274.013H775.337H775.304Z" fill="#212121"/>
<path d="M815.239 315.028L827.292 308.416C834.155 321.608 844.796 326.321 858.754 326.321C874.123 326.321 886.898 319.709 886.898 306.518C886.898 277.777 818.786 297.81 818.786 254.438C818.786 235.354 836.29 221.901 858.294 221.901C876.98 221.901 891.168 229.921 898.721 243.571L886.668 250.412C880.527 238.857 870.576 235.551 858.524 235.551C845.748 235.551 833.466 242.392 833.466 254.176C833.466 282 901.578 262.884 901.578 306.256C901.578 327.009 881.939 339.971 859.246 339.971C839.87 339.971 823.778 331.723 815.272 314.996L815.239 315.028Z" fill="#212121"/>
<path d="M953.106 222.344V337.876H938.459V222.344H953.106Z" fill="#212121"/>
<path d="M991.891 363.802L1004.17 356.96C1012.45 371.33 1027.82 379.121 1045.78 379.121C1073.7 379.121 1093.07 358.859 1093.07 327.958V311.919C1085.03 327.958 1068.02 339.742 1046.01 339.742C1013.14 339.742 987.359 313.588 987.359 280.331C987.359 247.073 1013.14 220.919 1047.43 220.919C1081.71 220.919 1107.72 246.844 1107.72 280.331V328.416C1107.72 367.533 1081.94 393 1046.01 393C1022.83 393 1002.27 382.853 991.859 363.769L991.891 363.802ZM1093.11 280.134C1093.11 255.158 1072.78 234.863 1047.46 234.863C1022.14 234.863 1002.04 255.126 1002.04 280.134C1002.04 305.143 1022.37 325.863 1047.46 325.863C1072.55 325.863 1093.11 305.372 1093.11 280.134Z" fill="#212121"/>
<path d="M1160.24 280.592V337.876H1145.59V279.414C1145.59 246.418 1165.69 220.952 1200.2 220.952C1234.72 220.952 1256 246.157 1256 279.185V337.876H1241.35V280.822C1241.35 256.304 1226.94 234.863 1200.2 234.863C1173.47 234.863 1160.24 256.304 1160.24 280.592Z" fill="#212121"/>
<path d="M348.773 282.917C348.773 248.743 328.214 221.148 287.294 221.148C286.67 221.148 226.341 221.017 226.341 221.017V338.007H259.872V286.877C259.872 268.972 268.345 253.653 287.262 253.653C306.178 253.653 315.177 268.972 315.177 286.877V338.007H348.773V282.884V282.917Z" fill="#212121"/>
</svg>
