<svg width="687" height="1121" viewBox="0 0 687 1121" fill="none" xmlns="http://www.w3.org/2000/svg">
<path d="M116.468 217V140.27C105.575 148.805 91.4054 154.072 76.6626 154.072C31.2466 154.072 0 122.302 0 76.73C0 34.996 34.1951 0.285851 79.0378 0.285851C123.881 0.285851 158.362 32.9134 158.362 76.73V217H116.468ZM116.468 77.0158C116.468 56.4347 100.538 39.6921 78.9969 39.6921C57.456 39.6921 41.8532 56.4347 41.8532 77.0158C41.8532 97.5969 57.497 114.666 78.9969 114.666C100.497 114.666 116.468 97.5969 116.468 77.0158Z" fill="#395446"/>
<path d="M241.209 4.41024H199.315V149.948H241.209V4.41024Z" fill="#395446"/>
<path d="M462.638 76.73C462.638 34.9552 496.833 0 541.675 0C586.518 0 621 32.9134 621 76.73V149.948H581.194V132.879C570.874 145.824 554.944 153.746 534.877 153.746C492.41 153.746 462.638 119.036 462.638 76.6891V76.73ZM579.106 77.0158C579.106 56.4347 563.175 39.3654 541.635 39.3654C520.094 39.3654 504.491 56.4347 504.491 77.0158C504.491 97.5969 520.135 114.666 541.635 114.666C563.134 114.666 579.106 97.5969 579.106 77.0158Z" fill="#395446"/>
<path d="M434.913 81.3852C434.913 38.7529 409.277 4.32857 358.25 4.32857C357.472 4.32857 282.243 4.16523 282.243 4.16523V150.111H324.055V86.3263C324.055 63.9893 334.621 44.8782 358.209 44.8782C381.798 44.8782 393.019 63.9893 393.019 86.3263V150.111H434.913V81.3444V81.3852Z" fill="#395446"/>
<path d="M547.029 1120.96C504.961 1120.96 472.327 1089.21 472.327 1047.23C472.327 1023.15 484.662 1001.98 502.919 989.939L410 989.654L410 971.456L547.029 971.456C588.771 971.456 621.446 1004.34 621.446 1046.37C621.446 1088.4 587.914 1121 547.029 1121L547.029 1120.96ZM547.029 989.613C515.866 989.613 489.685 1014.58 489.685 1046.33C489.685 1078.07 515.866 1102.76 547.029 1102.76C578.193 1102.76 604.088 1077.79 604.088 1046.33C604.088 1014.87 578.193 989.613 547.029 989.613Z" fill="#395446"/>
<path d="M546.458 934.691C505.287 934.691 472.041 906.211 472.041 864.469C472.041 822.727 501.734 796.001 542.332 796.001L553.197 796.001L553.197 916.738C582.318 913.8 603.802 891.481 603.802 861.205C603.802 841.823 596.45 824.196 578.234 813.914L585.871 799.796C609.397 812.73 621.16 835.05 621.16 861.205C621.16 903.232 589.098 934.651 546.458 934.651L546.458 934.691ZM538.534 814.24C508.841 814.811 489.399 835.702 489.399 864.469C489.399 893.235 510.883 913.515 538.534 916.167L538.534 814.199L538.534 814.24Z" fill="#395446"/>
<path d="M589.711 764.623L581.46 749.648C597.92 741.12 603.802 727.899 603.802 710.558C603.802 691.462 595.551 675.589 579.091 675.589C543.231 675.589 568.227 760.216 514.11 760.216C490.298 760.216 473.511 738.467 473.511 711.129C473.511 687.912 483.518 670.285 500.55 660.901L509.086 675.875C494.668 683.505 490.543 695.869 490.543 710.844C490.543 726.716 499.079 741.977 513.783 741.977C548.5 741.977 524.647 657.351 578.765 657.351C604.659 657.351 620.833 681.751 620.833 709.946C620.833 734.02 610.541 754.014 589.67 764.582L589.711 764.623Z" fill="#395446"/>
<path d="M474.064 593.33L618.219 593.33L618.219 611.529L474.064 611.529L474.064 593.33Z" fill="#395446"/>
<path d="M650.567 545.141L642.031 529.881C659.961 519.598 669.682 500.502 669.682 478.183C669.682 443.5 644.4 419.426 605.844 419.426L585.83 419.426C605.844 429.423 620.547 450.559 620.547 477.897C620.547 518.742 587.914 550.772 546.417 550.772C504.92 550.772 472.286 518.741 472.286 476.143C472.286 433.544 504.634 401.228 546.417 401.228L606.416 401.228C655.223 401.228 687 433.258 687 477.897C687 506.705 674.338 532.247 650.526 545.182L650.567 545.141ZM546.172 419.385C515.008 419.385 489.685 444.643 489.685 476.102C489.685 507.561 514.967 532.533 546.172 532.533C577.376 532.533 603.23 507.276 603.23 476.102C603.23 444.928 577.662 419.385 546.172 419.385Z" fill="#395446"/>
<path d="M546.743 335.983L618.219 335.983L618.219 354.181L545.273 354.181C504.103 354.181 472.327 329.209 472.327 286.325C472.327 243.441 503.776 217 544.987 217L618.219 217L618.219 235.198L547.029 235.198C516.438 235.198 489.685 253.111 489.685 286.325C489.685 319.539 516.438 335.983 546.743 335.983Z" fill="#395446"/>
</svg>
