<svg width="989" height="346" viewBox="0 0 989 346" fill="none" xmlns="http://www.w3.org/2000/svg">
<path d="M185.486 346V223.656C168.138 237.265 145.572 245.664 122.092 245.664C49.763 245.664 0 195.008 0 122.344C0 55.8001 54.4589 0.455781 125.875 0.455781C197.291 0.455781 252.207 52.4795 252.207 122.344V346H185.486ZM185.486 122.799C185.486 89.9834 160.116 63.2879 125.81 63.2879C91.504 63.2879 66.6551 89.9834 66.6551 122.799C66.6551 155.615 91.5692 182.832 125.81 182.832C160.05 182.832 185.486 155.615 185.486 122.799Z" fill="#212121"/>
<path d="M384.147 7.03199H317.427V239.088H384.147V7.03199Z" fill="#212121"/>
<path d="M736.793 122.344C736.793 55.735 791.252 0 862.668 0C934.084 0 989 52.4795 989 122.344V239.088H925.606V211.871C909.17 232.512 883.8 245.143 851.842 245.143C784.208 245.143 736.793 189.799 736.793 122.279V122.344ZM922.28 122.799C922.28 89.9834 896.909 62.767 862.603 62.767C828.297 62.767 803.448 89.9834 803.448 122.799C803.448 155.615 828.362 182.832 862.603 182.832C896.844 182.832 922.28 155.615 922.28 122.799Z" fill="#212121"/>
<path d="M692.639 129.766C692.639 61.7904 651.811 6.90177 570.547 6.90177C569.308 6.90177 449.498 6.64133 449.498 6.64133V239.348H516.088V137.645C516.088 102.029 532.915 71.557 570.482 71.557C608.048 71.557 625.919 102.029 625.919 137.645V239.348H692.639V129.701V129.766Z" fill="#212121"/>
</svg>
