<svg width="521" height="506" viewBox="0 0 521 506" fill="none" xmlns="http://www.w3.org/2000/svg">
<path d="M214.918 0C297.452 0 364.36 66.9078 364.36 149.442V150.955C452.5 161.502 520.828 236.521 520.828 327.501C520.828 425.707 441.216 505.319 343.01 505.319H156.468V354.668H149.442C66.9079 354.668 0.000136486 287.76 0 205.226V149.442C0 66.9078 66.9079 1.09571e-05 149.442 0H214.918ZM364.36 205.226C364.36 287.76 297.452 354.668 214.918 354.668H206.775V455.012H343.01C413.432 455.012 470.521 397.923 470.521 327.501C470.52 264.354 424.618 211.93 364.36 201.771V205.226ZM149.442 50.3076C94.6917 50.3076 50.3076 94.6918 50.3076 149.442V205.226C50.3078 259.976 94.6918 304.36 149.442 304.36H156.468V299.126C156.468 216.591 223.376 149.684 305.91 149.684H314.053V149.442C314.053 94.6918 269.669 50.3076 214.918 50.3076H149.442ZM305.91 199.991C251.16 199.991 206.775 244.375 206.775 299.126V304.36H214.918C269.669 304.36 314.053 259.976 314.053 205.226V199.991H305.91Z" fill="#212121"/>
</svg>
