<svg width="1256" height="223" viewBox="0 0 1256 223" fill="none" xmlns="http://www.w3.org/2000/svg">
<path d="M93.4002 221.619V159.835C84.6645 166.707 73.3015 170.949 61.4786 170.949C25.0578 170.949 0 145.368 0 108.672C0 75.0677 27.4224 47.1187 63.3834 47.1187C99.3445 47.1187 126.997 73.3907 126.997 108.672V221.619H93.4002ZM93.4002 108.902C93.4002 92.3303 80.625 78.849 63.3506 78.849C46.0761 78.849 33.5637 92.3303 33.5637 108.902C33.5637 125.474 46.109 139.219 63.3506 139.219C80.5922 139.219 93.4002 125.474 93.4002 108.902Z" fill="#E0DACF"/>
<path d="M193.434 50.4397H159.838V167.628H193.434V50.4397Z" fill="#E0DACF"/>
<path d="M371.007 108.672C371.007 75.0348 398.429 46.8885 434.39 46.8885C470.351 46.8885 498.003 73.3907 498.003 108.672V167.628H466.082V153.884C457.806 164.307 445.03 170.686 428.938 170.686C394.882 170.686 371.007 142.737 371.007 108.639V108.672ZM464.407 108.902C464.407 92.3303 451.632 78.586 434.357 78.586C417.083 78.586 404.57 92.3303 404.57 108.902C404.57 125.474 417.116 139.219 434.357 139.219C451.599 139.219 464.407 125.474 464.407 108.902Z" fill="#E0DACF"/>
<path d="M528.437 110.316C528.437 76.4487 553.988 50.1766 587.781 50.1766C607.157 50.1766 624.202 60.1068 633.89 74.8046L634.12 0H648.767V110.316C648.767 143.921 622.297 170.226 588.471 170.226C554.644 170.226 528.404 143.23 528.404 110.316H528.437ZM634.153 110.316C634.153 85.228 614.054 64.1511 588.504 64.1511C562.953 64.1511 543.084 85.228 543.084 110.316C543.084 135.405 563.183 156.251 588.504 156.251C613.824 156.251 634.153 135.405 634.153 110.316Z" fill="#E0DACF"/>
<path d="M678.357 109.856C678.357 76.7117 701.28 49.9465 734.877 49.9465C768.473 49.9465 789.984 73.8511 789.984 106.535V115.281H692.807C695.172 138.726 713.136 156.021 737.504 156.021C753.103 156.021 767.291 150.102 775.567 135.437L786.93 141.586C776.519 160.526 758.555 169.996 737.504 169.996C703.677 169.996 678.39 144.184 678.39 109.856H678.357ZM775.304 103.477C774.844 79.5724 758.03 63.921 734.877 63.921C711.724 63.921 695.402 81.2165 693.267 103.477H775.337H775.304Z" fill="#E0DACF"/>
<path d="M815.239 144.677L827.292 138.035C834.155 151.286 844.796 156.021 858.754 156.021C874.123 156.021 886.898 149.379 886.898 136.128C886.898 107.258 818.786 127.382 818.786 83.8141C818.786 64.6444 836.29 51.1302 858.294 51.1302C876.98 51.1302 891.168 59.1861 898.721 72.8975L886.668 79.7697C880.527 68.1626 870.576 64.8416 858.524 64.8416C845.748 64.8416 833.466 71.7138 833.466 83.551C833.466 111.5 901.578 92.2974 901.578 135.865C901.578 156.712 881.939 169.733 859.246 169.733C839.87 169.733 823.778 161.446 815.272 144.644L815.239 144.677Z" fill="#E0DACF"/>
<path d="M953.106 51.5751V167.628H938.459V51.5751H953.106Z" fill="#E0DACF"/>
<path d="M991.891 193.67L1004.17 186.798C1012.45 201.233 1027.82 209.058 1045.78 209.058C1073.7 209.058 1093.07 188.705 1093.07 157.665V141.553C1085.03 157.665 1068.02 169.502 1046.01 169.502C1013.14 169.502 987.359 143.23 987.359 109.823C987.359 76.4158 1013.14 50.1438 1047.43 50.1438C1081.71 50.1438 1107.72 76.1856 1107.72 109.823V158.125C1107.72 197.418 1081.94 223 1046.01 223C1022.83 223 1002.27 212.807 991.859 193.637L991.891 193.67ZM1093.11 109.626C1093.11 84.5375 1072.78 64.1511 1047.46 64.1511C1022.14 64.1511 1002.04 84.5046 1002.04 109.626C1002.04 134.747 1022.37 155.561 1047.46 155.561C1072.55 155.561 1093.11 134.977 1093.11 109.626Z" fill="#E0DACF"/>
<path d="M1160.24 110.086V167.628H1145.59V108.902C1145.59 75.7582 1165.69 50.1766 1200.2 50.1766C1234.72 50.1766 1256 75.4951 1256 108.672V167.628H1241.35V110.316C1241.35 85.6883 1226.94 64.1511 1200.2 64.1511C1173.47 64.1511 1160.24 85.6883 1160.24 110.086Z" fill="#E0DACF"/>
<path d="M348.773 112.421C348.773 78.0928 328.214 50.3739 287.294 50.3739C286.67 50.3739 226.341 50.2424 226.341 50.2424V167.76H259.872V116.399C259.872 98.4133 268.345 83.0249 287.262 83.0249C306.178 83.0249 315.177 98.4133 315.177 116.399V167.76H348.773V112.388V112.421Z" fill="#E0DACF"/>
</svg>
